<svg width="24" height="17" viewBox="0 0 24 17" fill="none" xmlns="http://www.w3.org/2000/svg">
<path d="M0 0.75V2.20455H14.25V13.1136H9.633C9.2985 11.8635 8.139 10.9318 6.75 10.9318C5.361 10.9318 4.2015 11.8635 3.867 13.1136H3V9.47727H1.5V14.5682H3.867C4.2015 15.8184 5.361 16.75 6.75 16.75C8.139 16.75 9.2985 15.8184 9.633 14.5682H15.867C16.2015 15.8184 17.361 16.75 18.75 16.75C20.139 16.75 21.2985 15.8184 21.633 14.5682H24V8.63655L23.9528 8.52236L22.4528 4.15873L22.29 3.65909H15.75V0.75H0ZM0.75 3.65909V5.11364H7.5V3.65909H0.75ZM15.75 5.11364H21.2108L22.5 8.84091V13.1136H21.633C21.2985 11.8635 20.139 10.9318 18.75 10.9318C17.361 10.9318 16.2015 11.8635 15.867 13.1136H15.75V5.11364ZM1.5 6.56818V8.02273H6V6.56818H1.5ZM6.75 12.3864C7.58775 12.3864 8.25 13.0285 8.25 13.8409C8.25 14.6533 7.58775 15.2955 6.75 15.2955C5.91225 15.2955 5.25 14.6533 5.25 13.8409C5.25 13.0285 5.91225 12.3864 6.75 12.3864ZM18.75 12.3864C19.5877 12.3864 20.25 13.0285 20.25 13.8409C20.25 14.6533 19.5877 15.2955 18.75 15.2955C17.9123 15.2955 17.25 14.6533 17.25 13.8409C17.25 13.0285 17.9123 12.3864 18.75 12.3864Z" fill="#212429"/>
</svg>
