<svg width="21" height="17" viewBox="0 0 21 17" fill="none" xmlns="http://www.w3.org/2000/svg">
<path d="M20.25 0.0673828H0.75C0.335156 0.0673828 0 0.397879 0 0.806955V15.5984C0 16.0075 0.335156 16.338 0.75 16.338H20.25C20.6648 16.338 21 16.0075 21 15.5984V0.806955C21 0.397879 20.6648 0.0673828 20.25 0.0673828ZM19.3125 2.62815V14.6739H1.6875V2.62815L1.04063 2.13125L1.96172 0.964114L2.96484 1.73373H18.0375L19.0406 0.964114L19.9617 2.13125L19.3125 2.62815ZM18.0375 1.73142L10.5 7.50933L2.9625 1.73142L1.95938 0.961803L1.03828 2.12894L1.68516 2.62584L9.69141 8.76429C9.92165 8.94068 10.2049 9.03643 10.4965 9.03643C10.7881 9.03643 11.0713 8.94068 11.3016 8.76429L19.3125 2.62815L19.9594 2.13125L19.0383 0.964114L18.0375 1.73142Z" fill="#393333"/>
</svg>
