<svg width="34" height="34" viewBox="0 0 34 34" fill="none" xmlns="http://www.w3.org/2000/svg">
<path d="M30.9999 23.8879V28.0879C31.0014 28.4778 30.9216 28.8637 30.7654 29.221C30.6092 29.5782 30.3801 29.8989 30.0928 30.1625C29.8055 30.4261 29.4663 30.6268 29.0969 30.7517C28.7276 30.8766 28.3362 30.923 27.9479 30.8879C23.6398 30.4198 19.5017 28.9477 15.8659 26.5899C12.4832 24.4404 9.61533 21.5725 7.46586 18.1899C5.09983 14.5376 3.6274 10.3793 3.16786 6.05189C3.13287 5.66475 3.17888 5.27456 3.30296 4.90617C3.42703 4.53778 3.62646 4.19926 3.88853 3.91216C4.1506 3.62507 4.46958 3.39568 4.82516 3.23862C5.18075 3.08156 5.56513 3.00026 5.95386 2.99989H10.1539C10.8333 2.9932 11.492 3.2338 12.0071 3.67684C12.5223 4.11987 12.8588 4.73512 12.9539 5.40789C13.1311 6.75198 13.4599 8.07171 13.9339 9.34189C14.1222 9.84298 14.163 10.3876 14.0513 10.9111C13.9397 11.4347 13.6803 11.9152 13.3039 12.2959L11.5259 14.0739C13.5188 17.5789 16.4209 20.4809 19.9259 22.4739L21.7039 20.6959C22.0845 20.3195 22.5651 20.0601 23.0886 19.9484C23.6122 19.8368 24.1568 19.8775 24.6579 20.0659C25.928 20.5399 27.2478 20.8686 28.5919 21.0459C29.2719 21.1418 29.893 21.4844 30.337 22.0084C30.781 22.5324 31.0169 23.2013 30.9999 23.8879Z" stroke="black" stroke-width="2" stroke-linecap="round" stroke-linejoin="round"/>
</svg>
