<svg xmlns="http://www.w3.org/2000/svg" width="56" height="56" viewBox="0 0 56 56" fill="none">
<circle cx="28" cy="28" r="28" fill="white"/>
<path d="M14 16.8V25.2H22.4" stroke="black" stroke-width="2" stroke-linecap="round" stroke-linejoin="round"/>
<path d="M17.514 32.2006C18.4218 34.7772 20.1423 36.9889 22.4163 38.5026C24.6904 40.0162 27.3948 40.7499 30.122 40.5929C32.8492 40.4359 35.4516 39.3969 37.537 37.6323C39.6223 35.8677 41.0778 33.4732 41.6839 30.8095C42.2901 28.1459 42.0141 25.3574 40.8977 22.8642C39.7812 20.371 37.8847 18.3081 35.494 16.9865C33.1032 15.6649 30.3477 15.156 27.6425 15.5366C24.9374 15.9172 22.4293 17.1666 20.496 19.0966L14 25.2006" stroke="black" stroke-width="2" stroke-linecap="round" stroke-linejoin="round"/>
</svg>