<svg width="187" height="20" viewBox="0 0 187 20" fill="none" xmlns="http://www.w3.org/2000/svg">
<path d="M58.436 0.283203H54.5019C53.3125 0.283203 52.3976 0.663318 51.8487 1.89869L44.3464 19.6691H49.6529C49.6529 19.6691 50.5678 17.2934 50.7508 16.7232C51.2997 16.7232 56.5147 16.7232 57.2466 16.7232C57.4296 17.3884 57.887 19.5741 57.887 19.5741H62.6445L58.436 0.283203ZM52.2146 12.732C52.6721 11.5916 54.2274 7.31533 54.2274 7.31533C54.2274 7.41036 54.6849 6.17499 54.8678 5.50979L55.2338 7.22031C55.2338 7.22031 56.2402 11.8767 56.4232 12.827H52.2146V12.732Z" fill="#737373"/>
<path d="M44.7108 13.304C44.7108 17.2952 41.2342 19.956 35.8362 19.956C33.549 19.956 31.3532 19.4809 30.1638 18.9107L30.8957 14.5394L31.5362 14.8245C33.183 15.5847 34.2809 15.8698 36.2937 15.8698C37.7575 15.8698 39.3129 15.2996 39.3129 13.9692C39.3129 13.114 38.6724 12.5438 36.6596 11.5935C34.7383 10.6432 32.1766 9.12276 32.1766 6.36693C32.1766 2.56578 35.7447 0 40.7767 0C42.698 0 44.3448 0.380115 45.3512 0.855259L44.6193 5.03652L44.2533 4.65641C43.3384 4.27629 42.1491 3.89618 40.4107 3.89618C38.4894 3.99121 37.5745 4.84647 37.5745 5.6067C37.5745 6.46196 38.6724 7.12716 40.4107 7.98242C43.3384 9.40785 44.7108 11.0233 44.7108 13.304Z" fill="#737373"/>
<path d="M0.0661621 0.475818L0.157653 0.0957031H8.02583C9.12372 0.0957031 9.94713 0.475818 10.2216 1.71119L11.9599 10.2638C10.2216 5.7024 6.19602 1.99628 0.0661621 0.475818Z" fill="#737373"/>
<path d="M23.0295 0.288388L15.0699 19.5792H9.67194L5.09741 3.42434C8.39107 5.61 11.1358 9.03104 12.1422 11.4068L12.6911 13.4024L17.6316 0.193359H23.0295V0.288388Z" fill="#737373"/>
<path d="M25.1433 0.193359H30.1753L26.9731 19.5792H21.9412L25.1433 0.193359Z" fill="#737373"/>
<path d="M107.573 9.99985C107.573 15.4869 103.278 19.9997 97.9459 19.9997C92.6631 19.9997 88.3184 15.4869 88.3184 9.99985C88.3184 4.51275 92.6137 0 97.8965 0C103.278 0 107.573 4.51275 107.573 9.99985Z" fill="#737373"/>
<path d="M94.6878 10.0511C94.6878 9.33319 94.5891 8.61525 94.4904 7.9486H88.5657C88.6151 7.58963 88.7138 7.28194 88.8126 6.87169H94.0954C93.9966 6.51272 93.8485 6.15375 93.7004 5.79478H89.2076C89.3557 5.43581 89.5532 5.12813 89.7507 4.71788H93.1573C92.9598 4.35891 92.713 3.99994 92.4167 3.64097H90.5406C90.8368 3.282 91.1331 2.97431 91.528 2.61534C89.8494 0.974344 87.5783 0 85.0603 0C79.8269 0.153844 75.4822 4.51275 75.4822 9.99985C75.4822 15.4869 79.7775 19.9997 85.1097 19.9997C87.6277 19.9997 89.8494 18.9741 91.5774 17.3843C91.923 17.0767 92.2192 16.7177 92.5648 16.3074H90.59C90.3431 15.9998 90.0963 15.6408 89.8988 15.2818H93.2561C93.4535 14.9741 93.651 14.6152 93.7991 14.2049H89.3063C89.1582 13.8972 89.0101 13.5383 88.9113 13.128H94.1941C94.4904 12.2049 94.6878 11.1793 94.6878 10.0511Z" fill="#737373"/>
<path d="M88.517 12.5631L88.6652 11.64C88.6158 11.64 88.517 11.6913 88.4183 11.6913C88.0727 11.6913 88.0233 11.4862 88.0727 11.3836L88.3689 9.53749H88.912L89.0601 8.51186H88.5664L88.6652 7.89648H87.6284C87.6284 7.89648 87.0359 11.3836 87.0359 11.7939C87.0359 12.4092 87.3815 12.7169 87.8752 12.7169C88.1714 12.7169 88.4183 12.6144 88.517 12.5631Z" fill="#212429"/>
<path d="M88.8621 10.8713C88.8621 12.3585 89.8495 12.7174 90.6394 12.7174C91.38 12.7174 91.7256 12.5636 91.7256 12.5636L91.9231 11.538C91.9231 11.538 91.38 11.7944 90.8369 11.7944C89.7014 11.7944 89.8989 10.9226 89.8989 10.9226H91.9725C91.9725 10.9226 92.1206 10.2559 92.1206 9.94825C92.1206 9.2816 91.775 8.40982 90.6394 8.40982C89.652 8.35853 88.8621 9.538 88.8621 10.8713ZM90.6394 9.33288C91.1825 9.33288 91.0838 9.99954 91.0838 10.0508H89.9482C89.9976 9.99954 90.0964 9.33288 90.6394 9.33288Z" fill="#212429"/>
<path d="M97.1059 12.5642L97.3034 11.3847C97.3034 11.3847 96.8097 11.6411 96.4147 11.6411C95.7235 11.6411 95.3779 11.077 95.3779 10.4104C95.3779 9.12833 95.9704 8.46167 96.711 8.46167C97.2047 8.46167 97.649 8.76936 97.649 8.76936L97.7972 7.64117C97.7972 7.64117 97.2047 7.38477 96.6122 7.38477C95.4273 7.38477 94.2917 8.46167 94.2917 10.4616C94.2917 11.795 94.8842 12.6667 96.1185 12.6667C96.5629 12.718 97.1059 12.5642 97.1059 12.5642Z" fill="#212429"/>
<path d="M82.938 8.35938C82.2467 8.35938 81.7037 8.5645 81.7037 8.5645L81.5555 9.48756C81.5555 9.48756 81.9999 9.28244 82.6911 9.28244C83.0367 9.28244 83.3329 9.33372 83.3329 9.64141C83.3329 9.84653 83.2836 9.89781 83.2836 9.89781H82.8392C81.9505 9.89781 81.0125 10.2568 81.0125 11.4875C81.0125 12.4619 81.6049 12.667 81.9999 12.667C82.6911 12.667 83.0367 12.2055 83.0861 12.2055L83.0367 12.6157H83.876L84.271 9.69269C84.271 8.41066 83.2836 8.35938 82.938 8.35938ZM83.1354 10.7183C83.1354 10.8722 83.0367 11.7439 82.4442 11.7439C82.148 11.7439 82.0493 11.4875 82.0493 11.3337C82.0493 11.0773 82.1974 10.7183 82.9873 10.7183C83.0861 10.7183 83.1354 10.7183 83.1354 10.7183Z" fill="#212429"/>
<path d="M85.2575 12.6655C85.5043 12.6655 86.788 12.7168 86.788 11.281C86.788 9.94764 85.5537 10.204 85.5537 9.69123C85.5537 9.43483 85.7512 9.33227 86.0968 9.33227C86.2449 9.33227 86.788 9.38355 86.788 9.38355L86.9361 8.4092C86.9361 8.4092 86.5905 8.30664 85.9487 8.30664C85.2081 8.30664 84.4182 8.61433 84.4182 9.69123C84.4182 10.922 85.7018 10.8194 85.7018 11.281C85.7018 11.5886 85.3562 11.6399 85.1094 11.6399C84.665 11.6399 84.1713 11.4861 84.1713 11.4861L84.0232 12.4604C84.1219 12.563 84.4182 12.6655 85.2575 12.6655Z" fill="#212429"/>
<path d="M105.599 7.53906L105.402 8.97494C105.402 8.97494 105.007 8.46213 104.414 8.46213C103.476 8.46213 102.686 9.64159 102.686 11.0262C102.686 11.898 103.081 12.7698 103.97 12.7698C104.562 12.7698 104.957 12.3595 104.957 12.3595L104.908 12.7185H105.945L106.685 7.64162L105.599 7.53906ZM105.106 10.3083C105.106 10.8723 104.859 11.6416 104.266 11.6416C103.921 11.6416 103.723 11.3339 103.723 10.7698C103.723 9.898 104.069 9.38519 104.562 9.38519C104.908 9.43647 105.106 9.69288 105.106 10.3083Z" fill="#212429"/>
<path d="M77.3583 12.6159L77.9507 8.82109L78.0495 12.6159H78.7407L80.0737 8.82109L79.5306 12.6159H80.6168L81.4562 7.53906H79.7775L78.7407 10.6672L78.6913 7.53906H77.2102L76.3708 12.6159H77.3583Z" fill="#212429"/>
<path d="M93.1578 12.6147C93.454 10.8712 93.5034 9.43528 94.244 9.69169C94.3427 9.02503 94.4908 8.71734 94.5896 8.46094H94.3921C93.9477 8.46094 93.5527 9.07631 93.5527 9.07631L93.6515 8.51222H92.6641L92.0222 12.6147H93.1578Z" fill="#212429"/>
<path d="M99.477 8.35938C98.7858 8.35938 98.2427 8.5645 98.2427 8.5645L98.0946 9.48756C98.0946 9.48756 98.539 9.28244 99.2302 9.28244C99.5758 9.28244 99.872 9.33372 99.872 9.64141C99.872 9.84653 99.8226 9.89781 99.8226 9.89781H99.3783C98.4896 9.89781 97.5515 10.2568 97.5515 11.4875C97.5515 12.4619 98.144 12.667 98.539 12.667C99.2302 12.667 99.5758 12.2055 99.6251 12.2055L99.5758 12.6157H100.514L100.909 9.69269C100.909 8.41066 99.8226 8.35938 99.477 8.35938ZM99.7239 10.7183C99.7239 10.8722 99.6251 11.7439 99.0327 11.7439C98.7364 11.7439 98.6377 11.4875 98.6377 11.3337C98.6377 11.0773 98.7858 10.7183 99.5758 10.7183C99.6745 10.7183 99.6745 10.7183 99.7239 10.7183Z" fill="#212429"/>
<path d="M101.699 12.6147C101.995 10.8712 102.044 9.43528 102.785 9.69169C102.884 9.02503 103.032 8.71734 103.131 8.46094H102.933C102.489 8.46094 102.094 9.07631 102.094 9.07631L102.193 8.51222H101.205L100.563 12.6147H101.699Z" fill="#212429"/>
<path d="M180.155 0H167.335C168.082 4.38703 172.189 8.51601 176.67 8.51601H186.876C187.001 8.12892 187.001 7.48376 187.001 7.09667C187.001 3.22576 183.889 0 180.155 0Z" fill="#737373"/>
<path d="M168.455 9.29102V20.0005H174.678V14.3232H180.155C183.142 14.3232 185.756 12.1297 186.627 9.29102H168.455Z" fill="#737373"/>
<path d="M146.549 0V19.8707H152.025C152.025 19.8707 153.395 19.8707 154.141 18.4513C157.875 10.8385 158.996 8.51601 158.996 8.51601H159.742V19.8707H165.966V0H160.489C160.489 0 159.12 0.129038 158.373 1.41934C155.262 7.99988 153.519 11.3547 153.519 11.3547H152.772V0H146.549Z" fill="#737373"/>
<path d="M120.411 19.9996V0.128906H126.634C126.634 0.128906 128.377 0.128902 129.373 2.96757C131.862 10.4513 132.111 11.4836 132.111 11.4836C132.111 11.4836 132.609 9.67714 134.849 2.96757C135.845 0.128902 137.587 0.128906 137.587 0.128906H143.811V19.9996H137.587V9.29006H136.841L133.356 19.9996H130.617L127.132 9.29006H126.385V19.9996H120.411Z" fill="#737373"/>
</svg>
