<svg xmlns="http://www.w3.org/2000/svg" xmlns:xlink="http://www.w3.org/1999/xlink" width="1920" zoomAndPan="magnify" viewBox="0 0 1440 809.999993" height="1080" preserveAspectRatio="xMidYMid meet" version="1.0"><defs><g/></defs><g fill="#a8a29c" fill-opacity="1"><g transform="translate(669.903273, 638.751011)"><g><path d="M 323.078125 -633.59375 C 446.578125 -633.59375 539.050781 -607.195312 600.5 -554.40625 C 661.945312 -501.613281 692.671875 -424.800781 692.671875 -323.96875 C 692.671875 -258.9375 677.601562 -202.109375 647.46875 -153.484375 C 617.34375 -104.859375 573.941406 -67.117188 517.265625 -40.265625 C 460.585938 -13.421875 393.171875 0 315.015625 0 L 259.53125 -0.890625 C 223.726562 -2.085938 197.476562 -2.6875 180.78125 -2.6875 C 110.96875 -2.6875 59.0625 -1.789062 25.0625 0 L 25.0625 -17.90625 C 44.15625 -19.09375 58.023438 -21.472656 66.671875 -25.046875 C 75.328125 -28.628906 81.144531 -35.492188 84.125 -45.640625 C 87.101562 -55.785156 88.59375 -72.191406 88.59375 -94.859375 L 88.59375 -538.734375 C 88.59375 -561.410156 86.953125 -577.816406 83.671875 -587.953125 C 80.390625 -598.097656 74.570312 -604.957031 66.21875 -608.53125 C 57.875 -612.113281 44.15625 -614.503906 25.0625 -615.703125 L 25.0625 -633.59375 C 52.5 -631.8125 93.066406 -630.921875 146.765625 -630.921875 L 178.984375 -630.921875 L 218.359375 -631.8125 C 268.484375 -633 303.390625 -633.59375 323.078125 -633.59375 Z M 336.5 -617.484375 C 318 -617.484375 304.125 -615.394531 294.875 -611.21875 C 285.632812 -607.050781 279.222656 -599.597656 275.640625 -588.859375 C 272.054688 -578.117188 270.265625 -562.007812 270.265625 -540.53125 L 270.265625 -93.078125 C 270.265625 -71.597656 272.054688 -55.488281 275.640625 -44.75 C 279.222656 -34.007812 285.632812 -26.550781 294.875 -22.375 C 304.125 -18.195312 318.296875 -16.109375 337.390625 -16.109375 C 396.453125 -16.109375 439.109375 -41.613281 465.359375 -92.625 C 491.617188 -143.632812 504.75 -219.554688 504.75 -320.390625 C 504.75 -421.210938 491.175781 -495.929688 464.03125 -544.546875 C 436.882812 -593.171875 394.375 -617.484375 336.5 -617.484375 Z M 336.5 -617.484375 "/></g></g></g><g fill="#846d62" fill-opacity="1"><g transform="translate(146.896469, 641.360296)"><g><path d="M 838.578125 -615.734375 C 819.492188 -614.546875 805.625 -612.160156 796.96875 -608.578125 C 788.320312 -604.992188 782.503906 -598.128906 779.515625 -587.984375 C 776.535156 -577.847656 775.046875 -561.441406 775.046875 -538.765625 L 775.046875 -94.859375 C 775.046875 -72.191406 776.6875 -55.785156 779.96875 -45.640625 C 783.25 -35.492188 789.066406 -28.628906 797.421875 -25.046875 C 805.773438 -21.472656 819.492188 -19.09375 838.578125 -17.90625 L 838.578125 0 C 802.191406 -1.789062 749.390625 -2.6875 680.171875 -2.6875 C 607.984375 -2.6875 554.882812 -1.789062 520.875 0 L 520.875 -17.90625 C 542.351562 -19.09375 558.015625 -21.472656 567.859375 -25.046875 C 577.703125 -28.628906 584.410156 -35.492188 587.984375 -45.640625 C 591.566406 -55.785156 593.359375 -72.191406 593.359375 -94.859375 L 593.359375 -552.203125 L 377.671875 -0.890625 L 363.359375 -0.890625 L 110.96875 -575.46875 L 110.96875 -175.40625 C 110.96875 -131.257812 112.757812 -99.488281 116.34375 -80.09375 C 119.925781 -60.707031 127.832031 -46.539062 140.0625 -37.59375 C 152.289062 -28.644531 172.726562 -22.082031 201.375 -17.90625 L 201.375 0 C 176.90625 -1.789062 143.488281 -2.6875 101.125 -2.6875 C 69.507812 -2.6875 44.75 -1.789062 26.84375 0 L 26.84375 -17.90625 C 45.34375 -22.082031 59.066406 -28.492188 68.015625 -37.140625 C 76.960938 -45.796875 82.925781 -59.070312 85.90625 -76.96875 C 88.894531 -94.863281 90.390625 -121.710938 90.390625 -157.515625 L 90.390625 -538.765625 C 90.390625 -561.441406 88.75 -577.847656 85.46875 -587.984375 C 82.1875 -598.128906 76.367188 -604.992188 68.015625 -608.578125 C 59.660156 -612.160156 45.9375 -614.546875 26.84375 -615.734375 L 26.84375 -633.640625 C 44.75 -631.847656 69.507812 -630.953125 101.125 -630.953125 C 172.726562 -630.953125 234.484375 -631.847656 286.390625 -633.640625 L 455.546875 -253.28125 L 602.3125 -630.953125 L 680.171875 -630.953125 C 749.390625 -630.953125 802.191406 -631.847656 838.578125 -633.640625 Z M 838.578125 -615.734375 "/></g></g></g><path fill="#fdf7f2" d="M -75.21875 265.734375 L 1424.183594 265.734375 L 1424.183594 401.0625 L -75.21875 401.0625 L -75.21875 265.734375 " fill-opacity="1" fill-rule="nonzero"/><g fill="#846d62" fill-opacity="1"><g transform="translate(240.923576, 357.772616)"><g><path d="M 5.953125 0 L 5.953125 -49.15625 L 35.421875 -49.15625 L 35.421875 -43.875 L 11.90625 -43.875 L 11.90625 -27.265625 L 33.21875 -27.265625 L 33.21875 -21.984375 L 11.90625 -21.984375 L 11.90625 0 Z M 5.953125 0 "/></g></g></g><g fill="#846d62" fill-opacity="1"><g transform="translate(294.335086, 357.772616)"><g><path d="M 7.96875 0 L 1.734375 0 L 19.78125 -49.15625 L 25.921875 -49.15625 L 43.96875 0 L 37.734375 0 L 32.78125 -13.921875 L 12.90625 -13.921875 Z M 14.78125 -19.203125 L 30.921875 -19.203125 L 23.046875 -41.375 L 22.65625 -41.375 Z M 14.78125 -19.203125 "/></g></g></g><g fill="#846d62" fill-opacity="1"><g transform="translate(353.790394, 357.772616)"><g><path d="M 32.84375 -36.875 C 32.550781 -39.300781 31.378906 -41.1875 29.328125 -42.53125 C 27.285156 -43.875 24.773438 -44.546875 21.796875 -44.546875 C 18.535156 -44.546875 15.910156 -43.773438 13.921875 -42.234375 C 11.941406 -40.691406 10.953125 -38.742188 10.953125 -36.390625 C 10.953125 -34.628906 11.488281 -33.207031 12.5625 -32.125 C 13.644531 -31.050781 14.925781 -30.210938 16.40625 -29.609375 C 17.882812 -29.003906 19.234375 -28.546875 20.453125 -28.234375 L 25.4375 -26.890625 C 26.71875 -26.546875 28.144531 -26.078125 29.71875 -25.484375 C 31.300781 -24.898438 32.816406 -24.097656 34.265625 -23.078125 C 35.710938 -22.066406 36.90625 -20.765625 37.84375 -19.171875 C 38.789062 -17.585938 39.265625 -15.644531 39.265625 -13.34375 C 39.265625 -10.6875 38.570312 -8.285156 37.1875 -6.140625 C 35.800781 -3.992188 33.785156 -2.289062 31.140625 -1.03125 C 28.492188 0.226562 25.28125 0.859375 21.5 0.859375 C 16.226562 0.859375 12.035156 -0.382812 8.921875 -2.875 C 5.816406 -5.375 4.125 -8.640625 3.84375 -12.671875 L 9.984375 -12.671875 C 10.140625 -10.816406 10.765625 -9.285156 11.859375 -8.078125 C 12.960938 -6.867188 14.359375 -5.972656 16.046875 -5.390625 C 17.734375 -4.804688 19.550781 -4.515625 21.5 -4.515625 C 23.78125 -4.515625 25.820312 -4.882812 27.625 -5.625 C 29.4375 -6.375 30.867188 -7.414062 31.921875 -8.75 C 32.984375 -10.082031 33.515625 -11.644531 33.515625 -13.4375 C 33.515625 -15.070312 33.054688 -16.398438 32.140625 -17.421875 C 31.222656 -18.453125 30.019531 -19.285156 28.53125 -19.921875 C 27.050781 -20.566406 25.445312 -21.128906 23.71875 -21.609375 L 17.671875 -23.328125 C 13.828125 -24.429688 10.785156 -26.003906 8.546875 -28.046875 C 6.304688 -30.097656 5.1875 -32.78125 5.1875 -36.09375 C 5.1875 -38.851562 5.929688 -41.257812 7.421875 -43.3125 C 8.921875 -45.375 10.9375 -46.972656 13.46875 -48.109375 C 16.007812 -49.253906 18.847656 -49.828125 21.984375 -49.828125 C 25.148438 -49.828125 27.96875 -49.265625 30.4375 -48.140625 C 32.90625 -47.015625 34.863281 -45.472656 36.3125 -43.515625 C 37.757812 -41.566406 38.519531 -39.351562 38.59375 -36.875 Z M 32.84375 -36.875 "/></g></g></g><g fill="#846d62" fill-opacity="1"><g transform="translate(410.655511, 357.772616)"><g><path d="M 5.953125 0 L 5.953125 -49.15625 L 11.90625 -49.15625 L 11.90625 -27.265625 L 38.125 -27.265625 L 38.125 -49.15625 L 44.078125 -49.15625 L 44.078125 0 L 38.125 0 L 38.125 -21.984375 L 11.90625 -21.984375 L 11.90625 0 Z M 5.953125 0 "/></g></g></g><g fill="#846d62" fill-opacity="1"><g transform="translate(474.427782, 357.772616)"><g><path d="M 11.90625 -49.15625 L 11.90625 0 L 5.953125 0 L 5.953125 -49.15625 Z M 11.90625 -49.15625 "/></g></g></g><g fill="#846d62" fill-opacity="1"><g transform="translate(506.062551, 357.772616)"><g><path d="M 47.4375 -24.578125 C 47.4375 -19.390625 46.5 -14.90625 44.625 -11.125 C 42.75 -7.351562 40.175781 -4.441406 36.90625 -2.390625 C 33.644531 -0.347656 29.921875 0.671875 25.734375 0.671875 C 21.535156 0.671875 17.804688 -0.347656 14.546875 -2.390625 C 11.285156 -4.441406 8.71875 -7.351562 6.84375 -11.125 C 4.96875 -14.90625 4.03125 -19.390625 4.03125 -24.578125 C 4.03125 -29.765625 4.96875 -34.242188 6.84375 -38.015625 C 8.71875 -41.796875 11.285156 -44.707031 14.546875 -46.75 C 17.804688 -48.800781 21.535156 -49.828125 25.734375 -49.828125 C 29.921875 -49.828125 33.644531 -48.800781 36.90625 -46.75 C 40.175781 -44.707031 42.75 -41.796875 44.625 -38.015625 C 46.5 -34.242188 47.4375 -29.765625 47.4375 -24.578125 Z M 41.671875 -24.578125 C 41.671875 -28.835938 40.960938 -32.429688 39.546875 -35.359375 C 38.128906 -38.285156 36.21875 -40.5 33.8125 -42 C 31.40625 -43.507812 28.710938 -44.265625 25.734375 -44.265625 C 22.753906 -44.265625 20.0625 -43.507812 17.65625 -42 C 15.25 -40.5 13.335938 -38.285156 11.921875 -35.359375 C 10.503906 -32.429688 9.796875 -28.835938 9.796875 -24.578125 C 9.796875 -20.316406 10.503906 -16.722656 11.921875 -13.796875 C 13.335938 -10.867188 15.25 -8.648438 17.65625 -7.140625 C 20.0625 -5.640625 22.753906 -4.890625 25.734375 -4.890625 C 28.710938 -4.890625 31.40625 -5.640625 33.8125 -7.140625 C 36.21875 -8.648438 38.128906 -10.867188 39.546875 -13.796875 C 40.960938 -16.722656 41.671875 -20.316406 41.671875 -24.578125 Z M 41.671875 -24.578125 "/></g></g></g><g fill="#846d62" fill-opacity="1"><g transform="translate(571.273773, 357.772616)"><g><path d="M 44.9375 -49.15625 L 44.9375 0 L 39.171875 0 L 12.390625 -38.59375 L 11.90625 -38.59375 L 11.90625 0 L 5.953125 0 L 5.953125 -49.15625 L 11.71875 -49.15625 L 38.59375 -10.46875 L 39.078125 -10.46875 L 39.078125 -49.15625 Z M 44.9375 -49.15625 "/></g></g></g><g fill="#846d62" fill-opacity="1"><g transform="translate(635.909383, 357.772616)"><g/></g></g><g fill="#846d62" fill-opacity="1"><g transform="translate(668.695375, 357.772616)"><g><path d="M 5.953125 0 L 5.953125 -49.15625 L 35.421875 -49.15625 L 35.421875 -43.875 L 11.90625 -43.875 L 11.90625 -27.265625 L 33.21875 -27.265625 L 33.21875 -21.984375 L 11.90625 -21.984375 L 11.90625 0 Z M 5.953125 0 "/></g></g></g><g fill="#846d62" fill-opacity="1"><g transform="translate(722.10687, 357.772616)"><g><path d="M 47.4375 -24.578125 C 47.4375 -19.390625 46.5 -14.90625 44.625 -11.125 C 42.75 -7.351562 40.175781 -4.441406 36.90625 -2.390625 C 33.644531 -0.347656 29.921875 0.671875 25.734375 0.671875 C 21.535156 0.671875 17.804688 -0.347656 14.546875 -2.390625 C 11.285156 -4.441406 8.71875 -7.351562 6.84375 -11.125 C 4.96875 -14.90625 4.03125 -19.390625 4.03125 -24.578125 C 4.03125 -29.765625 4.96875 -34.242188 6.84375 -38.015625 C 8.71875 -41.796875 11.285156 -44.707031 14.546875 -46.75 C 17.804688 -48.800781 21.535156 -49.828125 25.734375 -49.828125 C 29.921875 -49.828125 33.644531 -48.800781 36.90625 -46.75 C 40.175781 -44.707031 42.75 -41.796875 44.625 -38.015625 C 46.5 -34.242188 47.4375 -29.765625 47.4375 -24.578125 Z M 41.671875 -24.578125 C 41.671875 -28.835938 40.960938 -32.429688 39.546875 -35.359375 C 38.128906 -38.285156 36.21875 -40.5 33.8125 -42 C 31.40625 -43.507812 28.710938 -44.265625 25.734375 -44.265625 C 22.753906 -44.265625 20.0625 -43.507812 17.65625 -42 C 15.25 -40.5 13.335938 -38.285156 11.921875 -35.359375 C 10.503906 -32.429688 9.796875 -28.835938 9.796875 -24.578125 C 9.796875 -20.316406 10.503906 -16.722656 11.921875 -13.796875 C 13.335938 -10.867188 15.25 -8.648438 17.65625 -7.140625 C 20.0625 -5.640625 22.753906 -4.890625 25.734375 -4.890625 C 28.710938 -4.890625 31.40625 -5.640625 33.8125 -7.140625 C 36.21875 -8.648438 38.128906 -10.867188 39.546875 -13.796875 C 40.960938 -16.722656 41.671875 -20.316406 41.671875 -24.578125 Z M 41.671875 -24.578125 "/></g></g></g><g fill="#846d62" fill-opacity="1"><g transform="translate(787.318091, 357.772616)"><g><path d="M 5.953125 0 L 5.953125 -49.15625 L 22.5625 -49.15625 C 26.40625 -49.15625 29.554688 -48.503906 32.015625 -47.203125 C 34.484375 -45.898438 36.304688 -44.109375 37.484375 -41.828125 C 38.671875 -39.554688 39.265625 -36.972656 39.265625 -34.078125 C 39.265625 -30.816406 38.515625 -27.972656 37.015625 -25.546875 C 35.523438 -23.128906 33.210938 -21.382812 30.078125 -20.3125 L 41.1875 0 L 34.28125 0 L 23.90625 -19.234375 C 23.507812 -19.210938 23.09375 -19.203125 22.65625 -19.203125 L 11.90625 -19.203125 L 11.90625 0 Z M 11.90625 -24.578125 L 22.46875 -24.578125 C 26.40625 -24.578125 29.210938 -25.425781 30.890625 -27.125 C 32.566406 -28.820312 33.40625 -31.140625 33.40625 -34.078125 C 33.40625 -37.046875 32.5625 -39.421875 30.875 -41.203125 C 29.1875 -42.984375 26.351562 -43.875 22.375 -43.875 L 11.90625 -43.875 Z M 11.90625 -24.578125 "/></g></g></g><g fill="#846d62" fill-opacity="1"><g transform="translate(844.279087, 357.772616)"><g/></g></g><g fill="#846d62" fill-opacity="1"><g transform="translate(877.06508, 357.772616)"><g><path d="M 5.953125 0 L 5.953125 -49.15625 L 35.625 -49.15625 L 35.625 -43.875 L 11.90625 -43.875 L 11.90625 -27.265625 L 34.078125 -27.265625 L 34.078125 -21.984375 L 11.90625 -21.984375 L 11.90625 -5.28125 L 36 -5.28125 L 36 0 Z M 5.953125 0 "/></g></g></g><g fill="#846d62" fill-opacity="1"><g transform="translate(931.244036, 357.772616)"><g><path d="M 7.96875 -49.15625 L 22.5625 -7.78125 L 23.140625 -7.78125 L 37.734375 -49.15625 L 43.96875 -49.15625 L 25.921875 0 L 19.78125 0 L 1.734375 -49.15625 Z M 7.96875 -49.15625 "/></g></g></g><g fill="#846d62" fill-opacity="1"><g transform="translate(990.699328, 357.772616)"><g><path d="M 5.953125 0 L 5.953125 -49.15625 L 35.625 -49.15625 L 35.625 -43.875 L 11.90625 -43.875 L 11.90625 -27.265625 L 34.078125 -27.265625 L 34.078125 -21.984375 L 11.90625 -21.984375 L 11.90625 -5.28125 L 36 -5.28125 L 36 0 Z M 5.953125 0 "/></g></g></g><g fill="#846d62" fill-opacity="1"><g transform="translate(1044.878284, 357.772616)"><g><path d="M 5.953125 0 L 5.953125 -49.15625 L 22.5625 -49.15625 C 26.40625 -49.15625 29.554688 -48.503906 32.015625 -47.203125 C 34.484375 -45.898438 36.304688 -44.109375 37.484375 -41.828125 C 38.671875 -39.554688 39.265625 -36.972656 39.265625 -34.078125 C 39.265625 -30.816406 38.515625 -27.972656 37.015625 -25.546875 C 35.523438 -23.128906 33.210938 -21.382812 30.078125 -20.3125 L 41.1875 0 L 34.28125 0 L 23.90625 -19.234375 C 23.507812 -19.210938 23.09375 -19.203125 22.65625 -19.203125 L 11.90625 -19.203125 L 11.90625 0 Z M 11.90625 -24.578125 L 22.46875 -24.578125 C 26.40625 -24.578125 29.210938 -25.425781 30.890625 -27.125 C 32.566406 -28.820312 33.40625 -31.140625 33.40625 -34.078125 C 33.40625 -37.046875 32.5625 -39.421875 30.875 -41.203125 C 29.1875 -42.984375 26.351562 -43.875 22.375 -43.875 L 11.90625 -43.875 Z M 11.90625 -24.578125 "/></g></g></g><g fill="#846d62" fill-opacity="1"><g transform="translate(1101.83928, 357.772616)"><g><path d="M 1.734375 -49.15625 L 8.546875 -49.15625 L 22.171875 -26.21875 L 22.75 -26.21875 L 36.390625 -49.15625 L 43.203125 -49.15625 L 25.4375 -20.265625 L 25.4375 0 L 19.484375 0 L 19.484375 -20.265625 Z M 1.734375 -49.15625 "/></g></g></g><g fill="#846d62" fill-opacity="1"><g transform="translate(1160.52711, 357.772616)"><g><path d="M 47.4375 -24.578125 C 47.4375 -19.390625 46.5 -14.90625 44.625 -11.125 C 42.75 -7.351562 40.175781 -4.441406 36.90625 -2.390625 C 33.644531 -0.347656 29.921875 0.671875 25.734375 0.671875 C 21.535156 0.671875 17.804688 -0.347656 14.546875 -2.390625 C 11.285156 -4.441406 8.71875 -7.351562 6.84375 -11.125 C 4.96875 -14.90625 4.03125 -19.390625 4.03125 -24.578125 C 4.03125 -29.765625 4.96875 -34.242188 6.84375 -38.015625 C 8.71875 -41.796875 11.285156 -44.707031 14.546875 -46.75 C 17.804688 -48.800781 21.535156 -49.828125 25.734375 -49.828125 C 29.921875 -49.828125 33.644531 -48.800781 36.90625 -46.75 C 40.175781 -44.707031 42.75 -41.796875 44.625 -38.015625 C 46.5 -34.242188 47.4375 -29.765625 47.4375 -24.578125 Z M 41.671875 -24.578125 C 41.671875 -28.835938 40.960938 -32.429688 39.546875 -35.359375 C 38.128906 -38.285156 36.21875 -40.5 33.8125 -42 C 31.40625 -43.507812 28.710938 -44.265625 25.734375 -44.265625 C 22.753906 -44.265625 20.0625 -43.507812 17.65625 -42 C 15.25 -40.5 13.335938 -38.285156 11.921875 -35.359375 C 10.503906 -32.429688 9.796875 -28.835938 9.796875 -24.578125 C 9.796875 -20.316406 10.503906 -16.722656 11.921875 -13.796875 C 13.335938 -10.867188 15.25 -8.648438 17.65625 -7.140625 C 20.0625 -5.640625 22.753906 -4.890625 25.734375 -4.890625 C 28.710938 -4.890625 31.40625 -5.640625 33.8125 -7.140625 C 36.21875 -8.648438 38.128906 -10.867188 39.546875 -13.796875 C 40.960938 -16.722656 41.671875 -20.316406 41.671875 -24.578125 Z M 41.671875 -24.578125 "/></g></g></g><g fill="#846d62" fill-opacity="1"><g transform="translate(1225.738332, 357.772616)"><g><path d="M 44.9375 -49.15625 L 44.9375 0 L 39.171875 0 L 12.390625 -38.59375 L 11.90625 -38.59375 L 11.90625 0 L 5.953125 0 L 5.953125 -49.15625 L 11.71875 -49.15625 L 38.59375 -10.46875 L 39.078125 -10.46875 L 39.078125 -49.15625 Z M 44.9375 -49.15625 "/></g></g></g><g fill="#846d62" fill-opacity="1"><g transform="translate(1290.374004, 357.772616)"><g><path d="M 5.953125 0 L 5.953125 -49.15625 L 35.625 -49.15625 L 35.625 -43.875 L 11.90625 -43.875 L 11.90625 -27.265625 L 34.078125 -27.265625 L 34.078125 -21.984375 L 11.90625 -21.984375 L 11.90625 -5.28125 L 36 -5.28125 L 36 0 Z M 5.953125 0 "/></g></g></g><g fill="#846d62" fill-opacity="1"><g transform="translate(1344.553022, 357.772616)"><g><path d="M 9.3125 0.390625 C 8.125 0.390625 7.109375 -0.03125 6.265625 -0.875 C 5.421875 -1.726562 5 -2.75 5 -3.9375 C 5 -5.125 5.421875 -6.140625 6.265625 -6.984375 C 7.109375 -7.828125 8.125 -8.25 9.3125 -8.25 C 10.5 -8.25 11.515625 -7.828125 12.359375 -6.984375 C 13.210938 -6.140625 13.640625 -5.125 13.640625 -3.9375 C 13.640625 -2.75 13.210938 -1.726562 12.359375 -0.875 C 11.515625 -0.03125 10.5 0.390625 9.3125 0.390625 Z M 9.3125 0.390625 "/></g></g></g><path fill="#fdf7f2" d="M 291.566406 700.347656 L 1134.007812 700.347656 L 1134.007812 835.675781 L 291.566406 835.675781 L 291.566406 700.347656 " fill-opacity="1" fill-rule="nonzero"/><g fill="#846d62" fill-opacity="1"><g transform="translate(352.545895, 792.386203)"><g><path d="M 5.953125 -49.15625 L 13.0625 -49.15625 L 29.765625 -8.359375 L 30.34375 -8.359375 L 47.046875 -49.15625 L 54.15625 -49.15625 L 54.15625 0 L 48.578125 0 L 48.578125 -37.34375 L 48.109375 -37.34375 L 32.734375 0 L 27.359375 0 L 12 -37.34375 L 11.515625 -37.34375 L 11.515625 0 L 5.953125 0 Z M 5.953125 -49.15625 "/></g></g></g><g fill="#846d62" fill-opacity="1"><g transform="translate(427.925979, 792.386203)"><g><path d="M 47.4375 -24.578125 C 47.4375 -19.390625 46.5 -14.90625 44.625 -11.125 C 42.75 -7.351562 40.175781 -4.441406 36.90625 -2.390625 C 33.644531 -0.347656 29.921875 0.671875 25.734375 0.671875 C 21.535156 0.671875 17.804688 -0.347656 14.546875 -2.390625 C 11.285156 -4.441406 8.71875 -7.351562 6.84375 -11.125 C 4.96875 -14.90625 4.03125 -19.390625 4.03125 -24.578125 C 4.03125 -29.765625 4.96875 -34.242188 6.84375 -38.015625 C 8.71875 -41.796875 11.285156 -44.707031 14.546875 -46.75 C 17.804688 -48.800781 21.535156 -49.828125 25.734375 -49.828125 C 29.921875 -49.828125 33.644531 -48.800781 36.90625 -46.75 C 40.175781 -44.707031 42.75 -41.796875 44.625 -38.015625 C 46.5 -34.242188 47.4375 -29.765625 47.4375 -24.578125 Z M 41.671875 -24.578125 C 41.671875 -28.835938 40.960938 -32.429688 39.546875 -35.359375 C 38.128906 -38.285156 36.21875 -40.5 33.8125 -42 C 31.40625 -43.507812 28.710938 -44.265625 25.734375 -44.265625 C 22.753906 -44.265625 20.0625 -43.507812 17.65625 -42 C 15.25 -40.5 13.335938 -38.285156 11.921875 -35.359375 C 10.503906 -32.429688 9.796875 -28.835938 9.796875 -24.578125 C 9.796875 -20.316406 10.503906 -16.722656 11.921875 -13.796875 C 13.335938 -10.867188 15.25 -8.648438 17.65625 -7.140625 C 20.0625 -5.640625 22.753906 -4.890625 25.734375 -4.890625 C 28.710938 -4.890625 31.40625 -5.640625 33.8125 -7.140625 C 36.21875 -8.648438 38.128906 -10.867188 39.546875 -13.796875 C 40.960938 -16.722656 41.671875 -20.316406 41.671875 -24.578125 Z M 41.671875 -24.578125 "/></g></g></g><g fill="#846d62" fill-opacity="1"><g transform="translate(493.137215, 792.386203)"><g><path d="M 21.125 0 L 5.953125 0 L 5.953125 -49.15625 L 21.796875 -49.15625 C 26.566406 -49.15625 30.644531 -48.175781 34.03125 -46.21875 C 37.425781 -44.257812 40.023438 -41.453125 41.828125 -37.796875 C 43.640625 -34.140625 44.546875 -29.765625 44.546875 -24.671875 C 44.546875 -19.554688 43.632812 -15.148438 41.8125 -11.453125 C 39.988281 -7.765625 37.332031 -4.929688 33.84375 -2.953125 C 30.351562 -0.984375 26.113281 0 21.125 0 Z M 11.90625 -5.28125 L 20.734375 -5.28125 C 26.835938 -5.28125 31.375 -7.007812 34.34375 -10.46875 C 37.3125 -13.9375 38.796875 -18.671875 38.796875 -24.671875 C 38.796875 -30.628906 37.335938 -35.316406 34.421875 -38.734375 C 31.503906 -42.160156 27.164062 -43.875 21.40625 -43.875 L 11.90625 -43.875 Z M 11.90625 -5.28125 "/></g></g></g><g fill="#846d62" fill-opacity="1"><g transform="translate(555.470457, 792.386203)"><g><path d="M 11.90625 -49.15625 L 11.90625 0 L 5.953125 0 L 5.953125 -49.15625 Z M 11.90625 -49.15625 "/></g></g></g><g fill="#846d62" fill-opacity="1"><g transform="translate(587.105242, 792.386203)"><g><path d="M 32.84375 -36.875 C 32.550781 -39.300781 31.378906 -41.1875 29.328125 -42.53125 C 27.285156 -43.875 24.773438 -44.546875 21.796875 -44.546875 C 18.535156 -44.546875 15.910156 -43.773438 13.921875 -42.234375 C 11.941406 -40.691406 10.953125 -38.742188 10.953125 -36.390625 C 10.953125 -34.628906 11.488281 -33.207031 12.5625 -32.125 C 13.644531 -31.050781 14.925781 -30.210938 16.40625 -29.609375 C 17.882812 -29.003906 19.234375 -28.546875 20.453125 -28.234375 L 25.4375 -26.890625 C 26.71875 -26.546875 28.144531 -26.078125 29.71875 -25.484375 C 31.300781 -24.898438 32.816406 -24.097656 34.265625 -23.078125 C 35.710938 -22.066406 36.90625 -20.765625 37.84375 -19.171875 C 38.789062 -17.585938 39.265625 -15.644531 39.265625 -13.34375 C 39.265625 -10.6875 38.570312 -8.285156 37.1875 -6.140625 C 35.800781 -3.992188 33.785156 -2.289062 31.140625 -1.03125 C 28.492188 0.226562 25.28125 0.859375 21.5 0.859375 C 16.226562 0.859375 12.035156 -0.382812 8.921875 -2.875 C 5.816406 -5.375 4.125 -8.640625 3.84375 -12.671875 L 9.984375 -12.671875 C 10.140625 -10.816406 10.765625 -9.285156 11.859375 -8.078125 C 12.960938 -6.867188 14.359375 -5.972656 16.046875 -5.390625 C 17.734375 -4.804688 19.550781 -4.515625 21.5 -4.515625 C 23.78125 -4.515625 25.820312 -4.882812 27.625 -5.625 C 29.4375 -6.375 30.867188 -7.414062 31.921875 -8.75 C 32.984375 -10.082031 33.515625 -11.644531 33.515625 -13.4375 C 33.515625 -15.070312 33.054688 -16.398438 32.140625 -17.421875 C 31.222656 -18.453125 30.019531 -19.285156 28.53125 -19.921875 C 27.050781 -20.566406 25.445312 -21.128906 23.71875 -21.609375 L 17.671875 -23.328125 C 13.828125 -24.429688 10.785156 -26.003906 8.546875 -28.046875 C 6.304688 -30.097656 5.1875 -32.78125 5.1875 -36.09375 C 5.1875 -38.851562 5.929688 -41.257812 7.421875 -43.3125 C 8.921875 -45.375 10.9375 -46.972656 13.46875 -48.109375 C 16.007812 -49.253906 18.847656 -49.828125 21.984375 -49.828125 C 25.148438 -49.828125 27.96875 -49.265625 30.4375 -48.140625 C 32.90625 -47.015625 34.863281 -45.472656 36.3125 -43.515625 C 37.757812 -41.566406 38.519531 -39.351562 38.59375 -36.875 Z M 32.84375 -36.875 "/></g></g></g><g fill="#846d62" fill-opacity="1"><g transform="translate(643.970344, 792.386203)"><g><path d="M 5.953125 0 L 5.953125 -49.15625 L 11.90625 -49.15625 L 11.90625 -27.265625 L 38.125 -27.265625 L 38.125 -49.15625 L 44.078125 -49.15625 L 44.078125 0 L 38.125 0 L 38.125 -21.984375 L 11.90625 -21.984375 L 11.90625 0 Z M 5.953125 0 "/></g></g></g><g fill="#846d62" fill-opacity="1"><g transform="translate(707.742598, 792.386203)"><g/></g></g><g fill="#846d62" fill-opacity="1"><g transform="translate(740.528591, 792.386203)"><g><path d="M 21.125 0 L 5.953125 0 L 5.953125 -49.15625 L 21.796875 -49.15625 C 26.566406 -49.15625 30.644531 -48.175781 34.03125 -46.21875 C 37.425781 -44.257812 40.023438 -41.453125 41.828125 -37.796875 C 43.640625 -34.140625 44.546875 -29.765625 44.546875 -24.671875 C 44.546875 -19.554688 43.632812 -15.148438 41.8125 -11.453125 C 39.988281 -7.765625 37.332031 -4.929688 33.84375 -2.953125 C 30.351562 -0.984375 26.113281 0 21.125 0 Z M 11.90625 -5.28125 L 20.734375 -5.28125 C 26.835938 -5.28125 31.375 -7.007812 34.34375 -10.46875 C 37.3125 -13.9375 38.796875 -18.671875 38.796875 -24.671875 C 38.796875 -30.628906 37.335938 -35.316406 34.421875 -38.734375 C 31.503906 -42.160156 27.164062 -43.875 21.40625 -43.875 L 11.90625 -43.875 Z M 11.90625 -5.28125 "/></g></g></g><g fill="#846d62" fill-opacity="1"><g transform="translate(802.861817, 792.386203)"><g><path d="M 7.96875 0 L 1.734375 0 L 19.78125 -49.15625 L 25.921875 -49.15625 L 43.96875 0 L 37.734375 0 L 32.78125 -13.921875 L 12.90625 -13.921875 Z M 14.78125 -19.203125 L 30.921875 -19.203125 L 23.046875 -41.375 L 22.65625 -41.375 Z M 14.78125 -19.203125 "/></g></g></g><g fill="#846d62" fill-opacity="1"><g transform="translate(862.317109, 792.386203)"><g><path d="M 5.953125 0 L 5.953125 -49.15625 L 22.5625 -49.15625 C 26.414062 -49.15625 29.570312 -48.460938 32.03125 -47.078125 C 34.488281 -45.691406 36.304688 -43.820312 37.484375 -41.46875 C 38.671875 -39.125 39.265625 -36.503906 39.265625 -33.609375 C 39.265625 -30.710938 38.675781 -28.078125 37.5 -25.703125 C 36.320312 -23.335938 34.507812 -21.453125 32.0625 -20.046875 C 29.613281 -18.648438 26.476562 -17.953125 22.65625 -17.953125 L 11.90625 -17.953125 L 11.90625 0 Z M 11.90625 -23.234375 L 22.46875 -23.234375 C 26.414062 -23.234375 29.222656 -24.222656 30.890625 -26.203125 C 32.566406 -28.191406 33.40625 -30.660156 33.40625 -33.609375 C 33.40625 -36.566406 32.566406 -39.015625 30.890625 -40.953125 C 29.210938 -42.898438 26.375 -43.875 22.375 -43.875 L 11.90625 -43.875 Z M 11.90625 -23.234375 "/></g></g></g><g fill="#846d62" fill-opacity="1"><g transform="translate(918.990299, 792.386203)"><g><path d="M 5.953125 0 L 5.953125 -49.15625 L 22.5625 -49.15625 C 26.414062 -49.15625 29.570312 -48.460938 32.03125 -47.078125 C 34.488281 -45.691406 36.304688 -43.820312 37.484375 -41.46875 C 38.671875 -39.125 39.265625 -36.503906 39.265625 -33.609375 C 39.265625 -30.710938 38.675781 -28.078125 37.5 -25.703125 C 36.320312 -23.335938 34.507812 -21.453125 32.0625 -20.046875 C 29.613281 -18.648438 26.476562 -17.953125 22.65625 -17.953125 L 11.90625 -17.953125 L 11.90625 0 Z M 11.90625 -23.234375 L 22.46875 -23.234375 C 26.414062 -23.234375 29.222656 -24.222656 30.890625 -26.203125 C 32.566406 -28.191406 33.40625 -30.660156 33.40625 -33.609375 C 33.40625 -36.566406 32.566406 -39.015625 30.890625 -40.953125 C 29.210938 -42.898438 26.375 -43.875 22.375 -43.875 L 11.90625 -43.875 Z M 11.90625 -23.234375 "/></g></g></g><g fill="#846d62" fill-opacity="1"><g transform="translate(975.663489, 792.386203)"><g><path d="M 5.953125 0 L 5.953125 -49.15625 L 35.625 -49.15625 L 35.625 -43.875 L 11.90625 -43.875 L 11.90625 -27.265625 L 34.078125 -27.265625 L 34.078125 -21.984375 L 11.90625 -21.984375 L 11.90625 -5.28125 L 36 -5.28125 L 36 0 Z M 5.953125 0 "/></g></g></g><g fill="#846d62" fill-opacity="1"><g transform="translate(1029.842445, 792.386203)"><g><path d="M 5.953125 0 L 5.953125 -49.15625 L 22.5625 -49.15625 C 26.40625 -49.15625 29.554688 -48.503906 32.015625 -47.203125 C 34.484375 -45.898438 36.304688 -44.109375 37.484375 -41.828125 C 38.671875 -39.554688 39.265625 -36.972656 39.265625 -34.078125 C 39.265625 -30.816406 38.515625 -27.972656 37.015625 -25.546875 C 35.523438 -23.128906 33.210938 -21.382812 30.078125 -20.3125 L 41.1875 0 L 34.28125 0 L 23.90625 -19.234375 C 23.507812 -19.210938 23.09375 -19.203125 22.65625 -19.203125 L 11.90625 -19.203125 L 11.90625 0 Z M 11.90625 -24.578125 L 22.46875 -24.578125 C 26.40625 -24.578125 29.210938 -25.425781 30.890625 -27.125 C 32.566406 -28.820312 33.40625 -31.140625 33.40625 -34.078125 C 33.40625 -37.046875 32.5625 -39.421875 30.875 -41.203125 C 29.1875 -42.984375 26.351562 -43.875 22.375 -43.875 L 11.90625 -43.875 Z M 11.90625 -24.578125 "/></g></g></g></svg>