<svg width="14" height="13" viewBox="0 0 14 13" fill="none" xmlns="http://www.w3.org/2000/svg">
<path d="M12.8936 1.07333C12.5531 0.732666 12.1488 0.462427 11.7038 0.278052C11.2588 0.0936774 10.7819 -0.0012207 10.3002 -0.0012207C9.81858 -0.0012207 9.34165 0.0936774 8.89667 0.278052C8.4517 0.462427 8.04741 0.732666 7.70691 1.07333L7.00024 1.78L6.29358 1.07333C5.60578 0.385535 4.67293 -0.000864195 3.70024 -0.000864188C2.72755 -0.000864181 1.7947 0.385535 1.10691 1.07333C0.419114 1.76112 0.0327149 2.69397 0.0327148 3.66666C0.0327148 4.63935 0.419114 5.5722 1.10691 6.26L1.81358 6.96666L7.00024 12.1533L12.1869 6.96666L12.8936 6.26C13.2342 5.91949 13.5045 5.51521 13.6889 5.07023C13.8732 4.62526 13.9681 4.14832 13.9681 3.66666C13.9681 3.185 13.8732 2.70807 13.6889 2.26309C13.5045 1.81812 13.2342 1.41383 12.8936 1.07333Z" fill="#212429"/>
</svg>
